# xmcd
#
# Track frame offsets:
#	150
#	15564
#	32279
#	47932
#	64412
#	76910
#	90885
#	106421
#	120900
#	136398
#	150033
#	165555
#
# Disc length: 2488 seconds
# Revision: 0
# Processed by: cddbd v1.5.2PL0 Copyright (c) Steve Scherf et al.
# Submitted via: dBpowerAMP V12.0
#
DISCID=7d09b60c
DTITLE=Keith Hall And Pat Dow Band - A Sense Of Place
DYEAR=2016
DGENRE=Blues
TTITLE0=Runaway Train
TTITLE1=Sweet Water Music Festival
TTITLE2=Still Ain't No Good
TTITLE3=Good To Have You Back
TTITLE4=The Beast
TTITLE5=A Sense Of Place
TTITLE6=Stone Cold
TTITLE7=Slide Man Tim
TTITLE8=Keep Him Running
TTITLE9=Coming Home Tonight
TTITLE10=Bound To Get Lucky
TTITLE11=The Feel Of You
EXTD=
EXTT0=
EXTT1=
EXTT2=
EXTT3=
EXTT4=
EXTT5=
EXTT6=
EXTT7=
EXTT8=
EXTT9=
EXTT10=
EXTT11=
PLAYORDER=
